<svg xmlns="http://www.w3.org/2000/svg" viewBox="0 0 77.84 64"><defs><style>.cls-1{fill:#ffe400;}.cls-1,.cls-2,.cls-3{fill-rule:evenodd;}.cls-2{fill:#f7e2e3;}.cls-3{fill:#466bff;}</style></defs><g id="Capa_2" data-name="Capa 2"><g id="Final"><path id="helmet-color3" class="cls-1" d="M5,47.94A33.86,33.86,0,0,1,5,31.19a48.34,48.34,0,0,1,6.49-14V13.4l5.44-5.6,6.86-4L32.6,1.44H44.9L55.58,7.8l4.31,3.34,7,7.69,5.14,10.63a42.62,42.62,0,0,1,1.62,11.71s3.38,1.57,3.36,6.77-4.7,9.8-10.12,11.9S34.05,70.21,5,47.94Z"/><path class="cls-2" d="M57.28,33.65,43.1,29s-6.31,3.61-5.19,8.48,7.18,6.3,7.18,6.3L57.28,33.65Z"/><path class="cls-3" d="M6,36.13l36.9-7s-6.23,3.08-4.78,8.58,7.64,5.8,7.64,5.8L7.64,50.34A8.13,8.13,0,0,1,1,43.52C0,37.48,6,36.13,6,36.13Z"/><path d="M74.37,39.83A38.93,38.93,0,0,0,58.68,8.44a23.89,23.89,0,0,0-9.2-6.51C43.08-.63,34-.64,26.38,1.9,16.91,5.06,12.5,10.83,11.09,13.07a1.4,1.4,0,0,0-.15.24c-.22.37-.35.62-.37.67a1.45,1.45,0,0,0-.16.65v2.69A35.31,35.31,0,0,0,3.58,35.74a8.47,8.47,0,0,0-2.09,2.09,8.36,8.36,0,0,0,5.9,13.06C12.79,54.61,28.29,64,46.73,64A50.75,50.75,0,0,0,64.2,61c8-2.9,12.5-6.7,13.46-11.31C78.64,44.88,75.44,41,74.37,39.83ZM71.43,40s0,0,0,.07l0,3.67a22.68,22.68,0,0,1-3,3.21c.12-11.84-1.2-21.38-4-28.69A37,37,0,0,1,71.43,40ZM47.27,35.42A4.69,4.69,0,0,0,49,38.32l-3.53,2.92a5.41,5.41,0,0,1-1.93-10.62l4.32,1.49A4.73,4.73,0,0,0,47.27,35.42Zm-3.89-7.78h-.1l-2.66.5c-4-6.95-8.94-11.37-14.76-13.15a20.57,20.57,0,0,0-12.49.22v-.13C20.05,12.27,26,11.89,31,14c6.13,2.57,10,8.42,12.39,13.65ZM13.25,18.4c3-1.26,14.93-5,24.27,10.32L7,34.34l-.14,0-.18,0A32.9,32.9,0,0,1,13.25,18.4ZM3,43.56a5.42,5.42,0,0,1,4.41-6.3l.08,0h0l30-5.53a8.33,8.33,0,0,0,2,10.65L9.43,47.9l-.1,0A5.41,5.41,0,0,1,3,43.56Zm71.72,5.51C74,52.55,70,55.7,63.19,58.19,41.81,66,21.23,56,12.07,50.42l33-6.08c.56,2.34,1.1,4.9,1.66,7.93a1.48,1.48,0,0,0,1.45,1.21l.27,0a1.48,1.48,0,0,0,1.18-1.72c-.61-3.3-1.19-6.06-1.81-8.59l10.06-8.32a1.47,1.47,0,0,0,.51-1.4,1.44,1.44,0,0,0-1-1.13l-6-2.07h0l-.07,0L47,28.7c-2.44-6.21-7-14.11-14.9-17.43-4.53-1.9-9.63-2.07-15.21-.54a28,28,0,0,1,10.4-6c7-2.34,15.27-2.35,21.07,0a21,21,0,0,1,7.76,5.38,1.49,1.49,0,0,0,.45.52h0C63,18,65.86,30.76,65.39,49.29c-6.06,4.16-16.9,8.45-34.11,5.13a1.48,1.48,0,1,0-.56,2.9A65.41,65.41,0,0,0,43,58.56c21.88,0,30.64-12.9,31.06-13.54a1,1,0,0,0,.1-.21A6.88,6.88,0,0,1,74.76,49.07Z"/></g></g></svg>