<svg xmlns="http://www.w3.org/2000/svg" viewBox="0 0 71.75 64"><defs><style>.cls-1{fill:#ff8630;}.cls-1,.cls-2{fill-rule:evenodd;}</style></defs><g id="Capa_2" data-name="Capa 2"><g id="Final"><path class="cls-1" d="M40.87.94S68.12,0,69.76,25.7c.8,12.55-6.85,18.48-6.85,18.48l7.54,6.46s-1.23,5.21-8.32,8.92a29.58,29.58,0,0,1-13.91,3.33L39.36,49.57h-8.3l-6.21,5.91s-8.68,2.36-14.17,0c-9-3.07-9.09-17.67-9.09-17.67l8,.1a27.5,27.5,0,0,1-2.9-14.44C7.49,15.69,10.47.88,40.87.94Z"/><path class="cls-2" d="M30.3,20.42c2,.13,2.37,3.12,2.54,5.72.14,2.34-.2,6.58-2.54,6.49s-2.75-4.33-2.68-6.49C27.7,23.74,28.38,20.3,30.3,20.42Z"/><path class="cls-2" d="M51.72,20.42c2,.13,2.37,3.12,2.54,5.72.14,2.34-.2,6.58-2.54,6.49S49,28.3,49,26.14C49.12,23.74,49.8,20.3,51.72,20.42Z"/><path d="M71.3,50.19l-6.61-6.45c6.07-5.59,5.88-12.67,5.79-16.19,0-.34,0-.65,0-.92C70.46,23.91,69.5,0,38.82,0h-.17C26.28,0,17.08,3.17,11.29,9.31,4.94,16.06,4.69,24.4,4.88,27.67a25.42,25.42,0,0,0,2,8.67c-3.62,0-5.38,0-5.4,0A1.49,1.49,0,0,0,0,37.7c0,.37-.51,9,4.86,14.85,3,3.3,7.22,5.05,12.52,5.2H18A16.11,16.11,0,0,0,31.5,51.09c1.62.14,3.31.21,5.06.21H38.4l7.83,11.94a1.49,1.49,0,0,0,1.1.66c.11,0,1,.1,2.45.1,2.94,0,8-.38,12.1-2.61a25.15,25.15,0,0,0,9.7-9.45A1.46,1.46,0,0,0,71.3,50.19ZM17.48,54.78c-4.45-.13-8-1.55-10.4-4.22C3.74,46.9,3.1,41.74,3,39.28c1.15,0,3,0,5.47,0A20.94,20.94,0,0,0,11,42.65c4,4.22,9.69,6.91,17,8A13.47,13.47,0,0,1,17.48,54.78Zm43,4C56.09,61.14,50.29,61.09,48.31,61L40.44,49a1.48,1.48,0,0,0-1.3-.67c-.47,0-1,0-1.56,0h-1c-23.93,0-28.27-13-28.72-20.83-.16-2.89,0-10.24,5.62-16.15C18.65,5.82,27.13,3,38.66,3h.16C66,3,67.48,22.68,67.49,26.64c0,.29,0,.62,0,1,.09,3.51.26,10.06-5.92,14.85a1.47,1.47,0,0,0-.13,2.23l6.92,6.77A22.85,22.85,0,0,1,60.47,58.78Z"/></g></g></svg>